# xmcd CD database file
#
# Track frame offsets:
#	150
#	6654
#	34022
#	48165
#	69570
#	92877
#	116887
#	138917
#	157152
#
# Disc length: 2373 seconds
#
# Revision: 3
# Processed by: cddbd v1.5.2PL0 Copyright (c) Steve Scherf et al.
# Submitted via: CDex 1.70beta2
#
DISCID=7d094309
DTITLE=B.B. King - Indianola Mississippi Seeds
DYEAR=1970
DGENRE=Blues
TTITLE0=Nobody Loves Me But My Mother
TTITLE1=You're Still My Woman
TTITLE2=Ask Me No Questions
TTITLE3=Until I'm Dead And Cold
TTITLE4=King's Special
TTITLE5=Ain't Gonna Worry My Life Anymore
TTITLE6=Chains And Things
TTITLE7=Go Underground
TTITLE8=Hummingbird
EXTD=YEAR: 1970
EXTT0=
EXTT1=
EXTT2=
EXTT3=
EXTT4=
EXTT5=
EXTT6=
EXTT7=
EXTT8=
PLAYORDER=
